
General
Complete name : C:\Users\MY PC\Nokia CL T20- Opening Ceremony with Jay Sean Ashikappu.flv
Format : Flash Video
File size : 285 MiB
Duration : 47mn 16s
Overall bit rate : 843 Kbps

Video
Format : AVC
Format/Info : Advanced Video Codec
Format profile : Main@L2.1
Format settings, CABAC : Yes
Format settings, ReFrames : 3 frames
Format settings, GOP : M=1, N=50
Codec ID : 7
Duration : 47mn 16s
Bit rate : 706 Kbps
Width : 480 pixels
Height : 360 pixels
Display aspect ratio : 4:3
Frame rate mode : Constant
Frame rate : 25.000 fps
Color space : YUV
Chroma subsampling : 4:2:0
Bit depth : 8 bits
Scan type : Progressive
Bits/(Pixel*Frame) : 0.164
Stream size : 239 MiB (84%)

Audio
Format : AAC
Format/Info : Advanced Audio Codec
Format profile : LC
Codec ID : 10
Duration : 47mn 16s
Bit rate : 129 Kbps
Channel(s) : 2 channels
Channel positions : Front: L R
Sampling rate : 44.1 KHz
Compression mode : Lossy
Stream size : 43.5 MiB (15%)


screenshots:
 
http://www.shotpix.com/images/25128662043185090380.png
 
http://www.shotpix.com/images/63257915713209734762.png
 
http://www.shotpix.com/images/76318801698888873936.png
 
http://www.shotpix.com/images/14911154552136557946.png
 
http://www.shotpix.com/images/77429558239876698975.png
 
http://www.shotpix.com/images/57354325588718737407.jpg